<svg xmlns="http://www.w3.org/2000/svg" xmlns:xlink="http://www.w3.org/1999/xlink" width="512" zoomAndPan="magnify" viewBox="0 0 384 383.999986" height="512" preserveAspectRatio="xMidYMid meet" version="1.0"><path fill="#ffffff" d="M 55.171875 21.894531 C 39.660156 28.382812 30.074219 37.40625 23.164062 52.210938 L 19.355469 60.246094 L 19.355469 323.917969 L 23.867188 333.222656 C 29.789062 345.066406 39.097656 354.371094 50.941406 360.296875 L 60.246094 364.808594 L 188.558594 365.230469 C 283.730469 365.511719 318.558594 365.230469 323.210938 363.960938 C 341.683594 359.167969 357.898438 343.375 363.539062 324.621094 C 366.21875 315.878906 366.5 69.410156 363.820312 60.386719 C 359.871094 46.851562 348.734375 32.609375 336.605469 25.703125 C 323.917969 18.511719 327.300781 18.652344 190.671875 18.652344 L 63.066406 18.652344 Z M 292.613281 82.808594 C 295.152344 84.074219 298.394531 86.753906 299.945312 88.871094 C 302.625 92.535156 302.765625 95.214844 303.191406 190.671875 C 303.472656 283.730469 303.332031 288.949219 300.933594 293.601562 C 295.433594 303.894531 300.089844 303.472656 191.660156 303.472656 C 84.640625 303.472656 89.152344 303.894531 83.511719 294.589844 C 80.832031 290.21875 80.691406 286.832031 80.691406 192.082031 C 80.691406 96.34375 80.832031 93.945312 83.511719 89.433594 C 89.011719 80.550781 85.910156 80.832031 191.800781 80.691406 C 275.695312 80.691406 288.808594 80.972656 292.613281 82.808594 Z M 292.613281 82.808594 " fill-opacity="1" fill-rule="nonzero"/><path fill="#ffffff" d="M 147.667969 148.511719 C 145.128906 151.191406 144.988281 154.292969 145.128906 192.222656 C 145.269531 229.164062 145.550781 233.394531 147.667969 235.933594 C 150.0625 238.472656 152.320312 238.613281 192.222656 238.613281 C 233.957031 238.613281 234.242188 238.613281 236.355469 235.511719 C 238.328125 232.832031 238.613281 226.203125 238.613281 192.082031 C 238.613281 157.960938 238.328125 151.332031 236.355469 148.652344 C 234.242188 145.550781 233.957031 145.550781 192.222656 145.550781 C 151.613281 145.550781 150.0625 145.691406 147.667969 148.511719 Z M 147.667969 148.511719 " fill-opacity="1" fill-rule="nonzero"/></svg>
