<svg xmlns="http://www.w3.org/2000/svg" xmlns:xlink="http://www.w3.org/1999/xlink" width="512" zoomAndPan="magnify" viewBox="0 0 384 383.999986" height="512" preserveAspectRatio="xMidYMid meet" version="1.0"><path fill="#6772e5" d="M 167.128906 123.773438 C 167.128906 108.785156 179.59375 102.976562 199.628906 102.976562 C 228.761719 102.976562 265.84375 111.921875 294.980469 127.597656 L 294.980469 37.367188 C 263.246094 24.675781 231.511719 19.859375 199.703125 19.859375 C 122.015625 19.859375 70.171875 60.460938 70.171875 128.285156 C 70.171875 234.417969 215.835938 217.214844 215.835938 262.941406 C 215.835938 280.679688 200.46875 286.414062 179.058594 286.414062 C 147.324219 286.414062 106.339844 273.339844 74.148438 255.828125 L 74.148438 342.15625 C 107.257812 356.457031 142.890625 363.875 178.980469 363.949219 C 258.65625 363.949219 313.558594 329.695312 313.558594 260.722656 C 313.636719 146.40625 167.128906 166.898438 167.128906 123.773438 Z M 167.128906 123.773438 " fill-opacity="1" fill-rule="nonzero"/></svg>
